<svg xmlns="http://www.w3.org/2000/svg" xmlns:xlink="http://www.w3.org/1999/xlink" width="171" height="50" viewBox="0 0 171 50">
    <defs>
        <path id="a" d="M0 .552h19.705v48.873H0z"/>
    </defs>
    <g fill="none" fill-rule="evenodd">
        <g transform="translate(0 .023)">
            <mask id="b" fill="#fff">
                <use xlink:href="#a"/>
            </mask>
            <path fill="#165788" d="M19.19 8.524c-.729-.644-1.41-1.928-1.326-3.317.055-.93-.537-1.6-1.361-1.733-1.595-.259-2.66-1.064-3.215-2.156C13.004.76 12.058.257 11.33.756c-1.23.842-2.451 1.313-4.447 1.257-.691-.02-1.07.318-1.129.877-.1.948-.83 1.458-1.457 1.737-.156.07-.272.119-.19.477.189.835.269 3.662-4.017 6.816-.111.081-.123.24-.015.326l1.362 1.066c.103.08.255.043.309-.077.48-1.075 1.14-2.441 2.724-3.144 1.324-.587 2.14-.079 2.83-1.312.683-1.216 2.012-2.794 3.035-1.623.452.517.306 1.328-.206 1.633-9.518 5.66-13.26 19.365-.678 31.903 2.115 2.108 2.026 5.359-.302 6.55-1.751.897-2.76-.152-2.977-.38-.411-.462-.577-1.014-.446-1.577.022-.098.067-.2.126-.302.095.417.46.734.91.75a.966.966 0 0 0 1-.93.959.959 0 0 0-.363-.783c-.764-.741-2.338-.314-2.942 1.048-.695 1.567.728 4.086 3.135 4.337 2.564.268 5.946-2.166 6.024-5.384.154-6.422-5.146-6.857-5.31-13.366-.116-4.573 2.505-7.015 4.504-8.429.664-.471 1.52-1.091 1.736-2.065.26-1.183 1.418-2.11 2.195-2.45a2.387 2.387 0 0 0 1.344-2.691c-.369-1.672.609-3.15 1.156-3.758.525-.583.726-2.051-.052-2.738" mask="url(#b)"/>
        </g>
        <path fill="#165788" d="M43.905 25.872c-.26 0-.35-.339-.126-.469.402-.236.696-.511.88-.828.326-.56.49-1.469.49-2.728v-5.871H35.79v5.871c0 1.249.158 2.158.474 2.728.185.317.477.593.876.829.223.13.133.468-.126.468h-6.321c-.26 0-.349-.339-.125-.469.402-.236.695-.511.88-.828.326-.56.49-1.469.49-2.728V9.022c0-1.23-.164-2.123-.49-2.683-.185-.318-.478-.593-.88-.828-.224-.13-.134-.47.125-.47h6.328c.259 0 .349.339.126.469-.398.235-.693.51-.883.829-.336.56-.494 1.454-.474 2.683v5.397h9.357V9.022c0-1.23-.163-2.123-.488-2.683-.185-.318-.478-.593-.88-.828-.224-.13-.134-.47.125-.47h6.33c.259 0 .35.338.128.468-.397.236-.688.512-.873.83-.325.56-.488 1.454-.488 2.683v12.825c0 1.249.163 2.158.488 2.728.184.32.47.595.86.83.222.13.132.467-.126.467h-6.32zM53.902 25.872c-.26 0-.349-.34-.125-.47.4-.232.69-.502.875-.812.325-.55.49-1.455.49-2.713V9.022c0-1.23-.165-2.123-.49-2.683-.184-.318-.478-.593-.881-.828-.222-.13-.133-.47.125-.47h6.33c.258 0 .348.339.126.469-.399.235-.694.51-.884.829-.336.56-.494 1.454-.475 2.683v12.855c0 1.249.159 2.153.475 2.713.183.31.474.58.87.813.223.13.135.47-.124.47h-6.312zM68.977 15.41h1.456c1.88 0 3.232-.21 4.054-1.155.821-.943 1.232-2.093 1.232-3.45 0-1.356-.346-2.486-1.04-3.39-.702-.895-1.806-1.175-3.31-1.175h-2.392v9.17zm-5.091 10.463c-.259 0-.349-.34-.124-.47.404-.236.7-.511.884-.828.328-.56.488-1.469.478-2.727V9.02c0-1.228-.159-2.122-.477-2.682-.185-.317-.481-.593-.885-.828-.225-.13-.135-.47.124-.47H72.1c4.982 0 7.472 1.853 7.472 5.558 0 2.04-.696 3.567-2.088 4.581-1.394 1.016-3.284 1.786-5.672 1.786h-2.835v4.888c0 1.227.204 2.124.61 2.694.23.322.581.603 1.05.844.24.123.161.48-.108.48h-6.643zM108.338 25.858c-.26 0-.349-.34-.126-.47.403-.235.696-.51.881-.828.326-.56.489-1.469.489-2.727V6.24h-1.423c-.8 0-1.536-.039-2.208.128-.276.069-.667.378-1.17.929a51.34 51.34 0 0 0-1.776 2.097c-.157.193-.474.072-.454-.177l.328-3.958a.254.254 0 0 1 .254-.232h16.75c.132 0 .243.102.253.233l.304 3.95c.019.249-.298.37-.455.174-1.216-1.522-2.046-2.439-2.49-2.75-.504-.354-1.383-.403-2.637-.394h-1.423v15.593c0 1.249.163 2.157.489 2.727.183.32.47.596.86.83.221.13.132.468-.127.468h-6.32zM123.602 25.858c-.26 0-.35-.34-.126-.47.402-.235.696-.51.88-.828.327-.56.49-1.469.49-2.727V9.008c0-1.23-.163-2.124-.49-2.684-.184-.316-.477-.593-.88-.828-.223-.13-.133-.469.126-.469h12.97c.144 0 .259.117.256.26l-.102 3.525c-.008.25-.338.335-.472.123-.69-1.098-1.272-1.825-1.746-2.183-.573-.432-1.428-.52-2.564-.512h-3.245v8.18h3.304c.77 0 1.394-.14 1.867-.42.332-.194.67-.513 1.015-.956.148-.189.453-.081.453.158v3.954c0 .24-.307.347-.453.157-.343-.445-.676-.76-1-.948-.464-.269-1.092-.4-1.882-.39H128.7v8.634h2.786c.948 0 1.635-.02 2.06-.059.424-.04.904-.063 1.437-.387a5.835 5.835 0 0 0 1.378-1.15c.292-.345.727-.876 1.305-1.593.158-.196.476-.068.451.183l-.385 4.026a.254.254 0 0 1-.253.229h-13.876zM141.53 25.858c-.26 0-.349-.341-.123-.47.4-.233.693-.503.878-.813.328-.55.487-1.455.477-2.712V9.008c0-1.23-.16-2.124-.477-2.684-.186-.316-.48-.593-.885-.828-.223-.13-.134-.469.124-.469h6.319c.259 0 .348.338.126.468-.398.236-.692.511-.877.83-.327.559-.487 1.453-.476 2.683v15.6h2.785c.771 0 1.319-.019 1.646-.058.325-.04.74-.039 1.244-.314.504-.276.988-.668 1.452-1.18.364-.4.847-.958 1.448-1.673.16-.19.473-.065.45.182l-.386 4.293H141.53zM157.954 21.742c.008-.254.35-.342.474-.12 1.646 2.94 3.478 3.66 5.496 3.66 1.047 0 1.931-.324 2.653-.972.701-.659 1.052-1.445 1.052-2.359-.01-1.583-1.166-3.095-3.468-4.54-.948-.6-1.907-1.224-2.874-1.873a10.126 10.126 0 0 1-2.476-2.33c-.681-.903-1.016-1.901-1.007-2.993 0-1.62.682-2.963 2.045-4.024 1.373-1.062 2.9-1.592 4.579-1.592 1.632 0 3.395.39 5.289 1.17.098.04.163.138.16.244l-.09 3.312c-.006.254-.342.336-.472.117-1.508-2.54-3.191-3.811-5.05-3.811-.939 0-1.725.3-2.357.9-.632.598-.948 1.321-.948 2.166 0 1.466 1.161 2.9 3.483 4.305.978.57 1.95 1.18 2.92 1.828a9.562 9.562 0 0 1 2.474 2.403 5.216 5.216 0 0 1 1.007 3.155c0 1.69-.666 3.101-2 4.23-1.334 1.132-3.097 1.697-5.29 1.697-2.13 0-3.979-.408-5.55-1.223a.257.257 0 0 1-.136-.235l.086-3.115zM96.148 22.41c-1.123 1.906-2.574 2.863-4.35 2.873-1.777 0-3.228-.958-4.352-2.873-1.123-1.915-1.685-4.238-1.685-6.969 0-2.72.558-5.032 1.673-6.938 1.116-1.905 2.57-2.858 4.364-2.858 1.785-.02 3.238.924 4.362 2.829 1.124 1.905 1.686 4.228 1.686 6.967 0 2.741-.567 5.064-1.698 6.969m4.44-12.566c-1.04-1.7-2.349-2.996-3.927-3.89-1.578-.894-3.199-1.34-4.865-1.34-1.664 0-3.284.45-4.86 1.355-1.575.904-2.885 2.2-3.933 3.889-1.047 1.69-1.571 3.576-1.571 5.658 0 2.082.51 3.97 1.53 5.662 1.02 1.683 2.31 2.962 3.867 3.838 1.576.866 3.115 1.298 4.619 1.298 1.503 0 2.87-.26 4.098-.78 2.68-1.142 4.586-3.006 5.715-5.593.609-1.376.915-2.866.915-4.47 0-2.053-.53-3.928-1.587-5.627M39.562 44.793h-.87V39.84h-5.87v4.954h-.869V34.53h.87v4.641h5.87v-4.64h.869zM45.162 44.307c.609 0 1.138-.174 1.587-.524.837-.66 1.257-1.585 1.257-2.777 0-.864-.263-1.632-.79-2.306-.531-.669-1.216-1.003-2.054-1.003-.839 0-1.521.334-2.047 1.003a3.658 3.658 0 0 0-.797 2.306c0 1.192.419 2.118 1.257 2.777.448.35.978.524 1.587.524m0 .668c-1.046 0-1.916-.384-2.612-1.152-.7-.768-1.05-1.71-1.05-2.825 0-1.115.344-2.055 1.034-2.821.69-.766 1.565-1.148 2.628-1.148 1.062 0 1.938.382 2.628 1.148.689.766 1.034 1.706 1.034 2.821 0 1.116-.351 2.057-1.05 2.825-.7.768-1.572 1.152-2.612 1.152M51.178 37.878h-1.511v-.668h1.51v-1.416l.819-.821v2.237h2.14v.668h-2.14v5.073c0 .86.37 1.29 1.11 1.29.418.005.78-.048 1.087-.16l.11.65c-.428.12-.9.179-1.416.179-.517 0-.93-.141-1.241-.421-.317-.281-.473-.766-.468-1.453v-5.158zM60.572 40.363c0-.884-.215-1.551-.644-2.003-.43-.452-.963-.675-1.602-.67a2.12 2.12 0 0 0-1.623.698c-.444.471-.722 1.129-.834 1.975h4.703zm-1.888 4.612c-1.147 0-2.042-.363-2.684-1.09-.642-.731-.969-1.692-.977-2.884 0-1.19.315-2.152.947-2.883.633-.732 1.404-1.097 2.313-1.097.914 0 1.66.288 2.238.864.58.572.869 1.332.869 2.282V41h-5.55c-.004 1.015.252 1.82.767 2.418.516.596 1.255.893 2.214.887.809.006 1.527-.162 2.156-.502l.246.582c-.249.158-.613.295-1.094.41a6.472 6.472 0 0 1-1.445.179zM64.167 44.793h-.818V34.348l.818-.327zM70.363 43.049a1.24 1.24 0 0 0-.439-.975 3.685 3.685 0 0 0-1.073-.64c-.419-.169-.837-.344-1.256-.523a3.041 3.041 0 0 1-1.066-.749 1.643 1.643 0 0 1-.445-1.127c0-.615.247-1.102.745-1.461.496-.359 1.149-.54 1.957-.546.803 0 1.523.148 2.16.443l-.3.705c-.636-.319-1.261-.48-1.875-.48-.613 0-1.076.11-1.388.328-.32.218-.481.514-.481.887.005.66.51 1.186 1.518 1.578.419.165.838.34 1.256.524.42.189.774.439 1.066.749.293.31.439.683.439 1.12 0 .623-.269 1.127-.804 1.513-.535.387-1.192.58-1.972.58-.437.005-.89-.05-1.357-.166-.468-.114-.823-.246-1.066-.395l.357-.667c.23.15.545.284.95.4.404.116.84.17 1.306.16.468 0 .877-.112 1.227-.335.36-.223.54-.53.54-.923M78.117 36.528c0 .451.18.909.54 1.375.133.164.308.375.529.632l.255.298c1.278-.76 1.922-1.532 1.932-2.312 0-.494-.158-.872-.475-1.134a1.705 1.705 0 0 0-1.134-.4c-.44 0-.823.146-1.15.436-.332.291-.497.66-.497 1.105m.914 7.779c1.007 0 1.938-.475 2.794-1.425l-2.794-3.205-.131.079c-.704.436-1.241.855-1.61 1.257-.369.403-.554.866-.554 1.389 0 .524.222.97.664 1.338.442.377.985.567 1.631.567m-.179.668c-.822-.005-1.518-.239-2.084-.7-.565-.464-.849-1.054-.849-1.771 0-.718.219-1.311.657-1.781.439-.475 1.123-.976 2.053-1.505l-.238-.269c-.396-.445-.685-.85-.868-1.213a2.451 2.451 0 0 1-.275-1.12c0-.737.245-1.299.737-1.686.493-.388 1.095-.582 1.807-.582.713 0 1.29.191 1.734.574.443.383.665.875.665 1.475 0 .602-.18 1.108-.538 1.52-.359.412-.923.84-1.693 1.287l-.131.072 2.516 2.923c.52-.775.855-1.6 1.007-2.472h.818a7.126 7.126 0 0 1-1.31 3.046l1.774 2.02h-1.117l-1.216-1.358c-1.002 1.027-2.15 1.54-3.449 1.54M90.631 39.6h1.87c.706 0 1.287-.181 1.744-.545.458-.363.686-.904.686-1.62 0-.716-.206-1.269-.62-1.656-.414-.387-.993-.58-1.738-.58h-1.942V39.6zm0 .669v4.525h-.87V34.53h2.868c1.035 0 1.822.247 2.362.74.54.5.81 1.175.81 2.027 0 .853-.223 1.508-.67 1.969a3.32 3.32 0 0 1-1.659.929l2.764 4.599h-.993l-2.67-4.525h-1.942zM102.5 40.363c0-.884-.215-1.551-.644-2.003-.429-.452-.963-.675-1.602-.67a2.123 2.123 0 0 0-1.623.698c-.443.471-.722 1.129-.834 1.975h4.703zm-1.887 4.612c-1.148 0-2.043-.363-2.685-1.09-.642-.731-.968-1.692-.977-2.884 0-1.19.315-2.152.948-2.883.631-.732 1.402-1.097 2.312-1.097.914 0 1.66.288 2.238.864.58.572.869 1.332.869 2.282V41h-5.55c-.005 1.015.251 1.82.767 2.418.517.596 1.255.893 2.214.887.809.006 1.527-.162 2.156-.502l.246.582c-.248.158-.613.295-1.094.41a6.472 6.472 0 0 1-1.444.179zM109.031 43.049c0-.393-.146-.718-.438-.975a3.681 3.681 0 0 0-1.073-.64c-.42-.169-.837-.344-1.257-.523a3.05 3.05 0 0 1-1.066-.749 1.651 1.651 0 0 1-.445-1.127c0-.615.248-1.102.745-1.461.496-.359 1.149-.54 1.957-.546.803 0 1.523.148 2.161.443l-.3.705c-.637-.319-1.263-.48-1.876-.48s-1.076.11-1.387.328c-.321.218-.482.514-.482.887.006.66.512 1.186 1.519 1.578.418.165.837.34 1.256.524.419.189.773.439 1.066.749.292.31.438.683.438 1.12 0 .623-.268 1.127-.804 1.513-.535.387-1.192.58-1.97.58-.44.005-.892-.05-1.359-.166-.467-.114-.823-.246-1.066-.395l.358-.667c.229.15.545.284.949.4.404.116.84.17 1.307.16.467 0 .876-.112 1.226-.335.36-.223.541-.53.541-.923M114.93 44.307c.61 0 1.139-.174 1.587-.524.837-.66 1.257-1.585 1.257-2.777 0-.864-.262-1.632-.789-2.306-.531-.669-1.216-1.003-2.055-1.003-.838 0-1.52.334-2.046 1.003a3.662 3.662 0 0 0-.798 2.306c0 1.192.42 2.118 1.258 2.777.448.35.977.524 1.586.524m0 .668c-1.045 0-1.915-.384-2.611-1.152-.7-.768-1.05-1.71-1.05-2.825 0-1.115.344-2.055 1.033-2.821.69-.766 1.565-1.148 2.628-1.148 1.063 0 1.939.382 2.628 1.148.689.766 1.034 1.706 1.034 2.821 0 1.116-.35 2.057-1.05 2.825-.7.768-1.571 1.152-2.612 1.152M121.465 44.793h-.818v-7.582h.818v1.365c.22-.276.424-.51.614-.697.19-.19.474-.378.854-.567.38-.19.78-.284 1.197-.284v.923c-.847-.131-1.735.32-2.665 1.35v5.492zM126.054 37.878h-1.511v-.668h1.511v-1.416l.818-.821v2.237h2.14v.668h-2.14v5.073c0 .86.37 1.29 1.11 1.29.419.005.78-.048 1.088-.16l.109.65c-.428.12-.9.179-1.416.179-.517 0-.93-.141-1.241-.421-.317-.281-.473-.766-.468-1.453v-5.158zM134.389 43.049c0-.393-.146-.718-.439-.975a3.685 3.685 0 0 0-1.072-.64c-.42-.169-.837-.344-1.256-.523a3.041 3.041 0 0 1-1.067-.749 1.643 1.643 0 0 1-.445-1.127c0-.615.248-1.102.745-1.461.496-.359 1.149-.54 1.957-.546.802 0 1.523.148 2.161.443l-.3.705c-.637-.319-1.262-.48-1.876-.48-.613 0-1.075.11-1.387.328-.321.218-.482.514-.482.887.005.66.511 1.186 1.519 1.578.418.165.837.34 1.256.524.418.189.773.439 1.065.749.293.31.439.683.439 1.12 0 .623-.268 1.127-.804 1.513-.535.387-1.192.58-1.971.58-.438.005-.891-.05-1.358-.166-.468-.114-.823-.246-1.066-.395l.358-.667c.229.15.545.284.949.4.404.116.84.17 1.306.16.468 0 .877-.112 1.227-.335.36-.223.541-.53.541-.923"/>
    </g>
</svg>
